<mxfile host="app.diagrams.net" modified="2024-03-03T04:15:13.434Z" agent="Mozilla/5.0 (Windows NT 10.0; Win64; x64) AppleWebKit/537.36 (KHTML, like Gecko) Chrome/121.0.0.0 Safari/537.36" version="24.0.1" etag="Wx8ViuVGRRtLj-9pUIoX" type="github">
  <diagram name="PÃ¡gina-1" id="wEMvNmd90RxLaCNRXkZW">
    <mxGraphModel>
      <root>
        <mxCell id="0" />
        <mxCell id="1" parent="0" />
      </root>
    </mxGraphModel>
  </diagram>
</mxfile>
